# xmcd
#
# Track frame offsets:
#	150
#	12079
#	28237
#	46227
#	65052
#	86099
#	107786
#	129620
#	146537
#	164580
#	181286
#	197870
#	214659
#	230834
#	246012
#	268374
#	290863
#	305437
#	327214
#	346872
#
# Disc length: 4742 seconds
#
# Revision: 2
# Processed by: cddbd v1.5.2PL0 Copyright (c) Steve Scherf et al.
# Submitted via: audiograbber 1.83.01
#
DISCID=3b128414
DTITLE=Fredrik Backman - Ein Mann namens Ove CD 3
DYEAR=2014
DGENRE=Hörbuch
TTITLE0=040
TTITLE1=041
TTITLE2=042
TTITLE3=043
TTITLE4=044
TTITLE5=045
TTITLE6=046
TTITLE7=047
TTITLE8=048
TTITLE9=049
TTITLE10=050
TTITLE11=051
TTITLE12=052
TTITLE13=053
TTITLE14=054
TTITLE15=055
TTITLE16=056
TTITLE17=057
TTITLE18=058
TTITLE19=059
EXTD=
EXTT0=
EXTT1=
EXTT2=
EXTT3=
EXTT4=
EXTT5=
EXTT6=
EXTT7=
EXTT8=
EXTT9=
EXTT10=
EXTT11=
EXTT12=
EXTT13=
EXTT14=
EXTT15=
EXTT16=
EXTT17=
EXTT18=
EXTT19=
PLAYORDER=
